<?xml version="1.0" encoding="UTF-8"?>
<svg width="54px" height="54px" viewBox="0 0 54 54" version="1.1" xmlns="http://www.w3.org/2000/svg" xmlns:xlink="http://www.w3.org/1999/xlink">
    <!-- Generator: Sketch 53.2 (72643) - https://sketchapp.com -->
    <title>Group 3</title>
    <desc>Created with Sketch.</desc>
    <g id="Page-1" stroke="none" stroke-width="1" fill="none" fill-rule="evenodd">
        <g id="Desktop-HD-Copy-11" transform="translate(-64.000000, -40.000000)">
            <g id="Group-3" transform="translate(64.000000, 40.000000)">
                <path d="M1.3,3.55271368e-15 L52,3.55271368e-15 C52.7179702,-4.05288994e-16 53.3,0.582029825 53.3,1.3 L53.3,52 C53.3,52.7179702 52.7179702,53.3 52,53.3 L1.3,53.3 C0.582029825,53.3 -3.64953405e-13,52.7179702 -3.6504133e-13,52 L-3.65929509e-13,1.3 C-3.66017435e-13,0.582029825 0.582029825,4.57278108e-15 1.3,4.4408921e-15 Z M20.1225781,23.3515625 C21.2499219,23.3515625 22.0217969,22.5796875 22.0217969,21.4726562 C22.0217969,20.9242188 21.8491406,20.5179688 21.2702344,19.7359375 L18.1522656,15.5921875 L21.1178906,12.4132812 C21.5850781,11.915625 21.7780469,11.5195312 21.7780469,11.0421875 C21.7780469,10.0570313 21.0061719,9.2953125 20.0108594,9.2953125 C19.4624219,9.2953125 19.0053906,9.52890625 18.5178906,10.0570313 L14.3233594,14.6679688 L14.0897656,14.6679688 L14.0897656,11.4382812 C14.0897656,10.0671875 13.3686719,9.28515625 12.0788281,9.28515625 C10.7991406,9.28515625 10.0780469,10.0570313 10.0780469,11.4382812 L10.0780469,21.1984375 C10.0780469,22.5695313 10.8296094,23.3515625 12.1397656,23.3515625 C13.3991406,23.3515625 14.0897656,22.5898438 14.0897656,21.1984375 L14.0897656,19.1773437 L15.1764844,18.090625 L18.1827344,22.1734375 C18.7921094,22.9859375 19.3811719,23.3515625 20.1225781,23.3515625 Z M31.8327344,21.1578125 C31.8327344,22.478125 32.6147656,23.25 33.9147656,23.25 L40.2928906,23.25 C41.2272656,23.25 41.8467969,22.640625 41.8467969,21.6960937 C41.8467969,20.7617188 41.2272656,20.1421875 40.3030469,20.1421875 L35.8038281,20.1421875 L35.8038281,17.725 L40.1710156,17.725 C40.9632031,17.725 41.5014844,17.1664063 41.5014844,16.3234375 C41.5014844,15.4804688 40.9632031,14.9015625 40.1710156,14.9015625 L35.8038281,14.9015625 L35.8038281,12.4945312 L40.3639844,12.4945312 C41.2272656,12.4945312 41.8467969,11.8546875 41.8467969,10.9507812 C41.8467969,10.0367187 41.2272656,9.38671875 40.3639844,9.38671875 L33.9147656,9.38671875 C32.6147656,9.38671875 31.8327344,10.16875 31.8327344,11.4789063 L31.8327344,21.1578125 Z M10.3827344,43.2578125 C10.3827344,44.578125 11.1647656,45.35 12.4647656,45.35 L18.8428906,45.35 C19.7772656,45.35 20.3967969,44.740625 20.3967969,43.7960937 C20.3967969,42.8617187 19.7772656,42.2421875 18.8530469,42.2421875 L14.3538281,42.2421875 L14.3538281,39.825 L18.7210156,39.825 C19.5132031,39.825 20.0514844,39.2664062 20.0514844,38.4234375 C20.0514844,37.5804687 19.5132031,37.0015625 18.7210156,37.0015625 L14.3538281,37.0015625 L14.3538281,34.5945312 L18.9139844,34.5945312 C19.7772656,34.5945312 20.3967969,33.9546875 20.3967969,33.0507812 C20.3967969,32.1367187 19.7772656,31.4867187 18.9139844,31.4867187 L12.4647656,31.4867187 C11.1647656,31.4867187 10.3827344,32.26875 10.3827344,33.5789062 L10.3827344,43.2578125 Z M43.2229687,40.6171875 L43.2229687,33.4875 C43.2229687,32.1671875 42.4714062,31.3851562 41.2221875,31.3851562 C39.9628125,31.3851562 39.21125,32.1671875 39.21125,33.4875 L39.21125,40.0179687 C39.21125,41.4601562 38.4596875,42.2929687 37.18,42.2929687 C35.88,42.2929687 35.14875,41.4804687 35.14875,40.0179687 L35.14875,33.4875 C35.14875,32.1671875 34.3971875,31.3851562 33.1378125,31.3851562 C31.8784375,31.3851562 31.1370312,32.1671875 31.1370312,33.4875 L31.1370312,40.6171875 C31.1370312,43.7046875 33.4526562,45.6546875 37.18,45.6546875 C40.8870312,45.6546875 43.2229687,43.7046875 43.2229687,40.6171875 Z" id="Combined-Shape" fill="#FFFFFF"></path>
                <g id="Group" transform="translate(9.450000, 9.250000)"></g>
            </g>
        </g>
    </g>
</svg>